<svg xmlns="http://www.w3.org/2000/svg" width="256" height="256" fill="none" viewBox="0 0 256 256" id="github">
  <rect width="224" height="224" x="16" y="16" fill="url(#paint0_linear_531_13616)" rx="70"></rect>
  <path fill="#1F2328" fill-rule="evenodd" d="M107.92 181.186C107.941 183.584 107.957 185.429 107.957 186.333C107.957 193.896 108.098 194.666 128.768 194.666C149.503 194.666 149.598 193.88 149.598 186.333C149.598 185.415 149.608 183.808 149.623 181.659C149.651 177.327 149.695 170.796 149.695 163.286C149.695 155.451 147.011 150.34 143.998 147.734C162.7 145.654 182.346 138.552 182.346 106.295C182.346 97.1262 179.088 89.634 173.703 83.7526C174.575 81.638 177.451 73.0954 172.88 61.5281C172.88 61.5281 165.837 59.2711 149.808 70.1363C143.096 68.2749 135.906 67.3426 128.769 67.3104C121.632 67.3426 114.447 68.2756 107.748 70.1363C91.699 59.2704 84.6464 61.5274 84.6464 61.5274C80.0864 73.096 82.9609 81.6373 83.8328 83.7526C78.4606 89.634 75.18 97.1262 75.18 106.295C75.18 138.475 94.7893 145.677 113.443 147.8C111.041 149.897 108.865 153.603 108.111 159.03C103.319 161.176 91.1623 164.888 83.6714 152.049C83.6714 152.049 79.2309 143.986 70.7978 143.395C70.7978 143.395 62.6036 143.287 70.2231 148.499C70.2231 148.499 75.7279 151.081 79.5484 160.788C79.5484 160.788 84.4785 175.777 107.843 170.698C107.862 174.544 107.895 178.269 107.92 181.181V181.181L107.92 181.186ZM74.8015 146.594C75.3992 146.88 76.056 146.755 76.241 146.338C76.4516 145.919 76.1038 145.345 75.4937 145.071C74.8861 144.783 74.228 144.903 74.0469 145.333C73.8501 145.751 74.1919 146.32 74.8015 146.594ZM78.6568 149.636C79.1882 150.223 79.9716 150.395 80.3719 150.024C80.7898 149.649 80.6835 148.871 80.1337 148.279C79.5832 147.693 78.8241 147.519 78.4107 147.891C78.0046 148.267 78.1076 149.051 78.6568 149.636ZM81.3298 154.016C81.8501 154.762 82.6912 155.098 83.2063 154.74C83.7318 154.374 83.7312 153.479 83.2181 152.72C82.6912 151.978 81.8626 151.656 81.341 152.014C80.8154 152.373 80.8154 153.269 81.3298 154.016ZM85.8399 159.881C86.5577 160.573 87.5386 160.71 87.9985 160.202C88.49 159.7 88.2669 158.732 87.5386 158.057C86.8156 157.369 85.8294 157.226 85.3636 157.735C84.9017 158.243 85.1057 159.204 85.8399 159.881ZM92.0947 162.724C93.0454 163.003 93.9902 162.704 94.1936 162.046C94.3911 161.377 93.7677 160.612 92.819 160.326C91.8611 160.027 90.9123 160.338 90.7148 161.001C90.5233 161.665 91.1446 162.436 92.0947 162.724ZM99.4615 164.108C100.46 164.095 101.266 163.521 101.243 162.829C101.243 162.14 100.425 161.583 99.4267 161.603C98.4222 161.62 97.6336 162.189 97.6336 162.888C97.6447 163.57 98.4576 164.13 99.4615 164.108ZM106.602 164.118C107.594 163.933 108.288 163.239 108.168 162.563C108.042 161.876 107.153 161.47 106.16 161.642C105.187 161.821 104.48 162.516 104.601 163.208C104.725 163.878 105.628 164.296 106.602 164.118Z" clip-rule="evenodd"></path>
  <defs>
    <linearGradient id="paint0_linear_531_13616" x1="16" x2="208" y1="16" y2="240" gradientUnits="userSpaceOnUse">
      <stop stop-color="#fff"></stop>
      <stop offset="1" stop-color="#ACCCFF"></stop>
    </linearGradient>
  </defs>
</svg>
