<svg xmlns="http://www.w3.org/2000/svg" xml:space="preserve" id="employee-tired-and-battery-down" x="0" y="0" style="enable-background:new 0 0 1080 1080" version="1.1" viewBox="0 0 1080 1080">
  <path d="M1039 981.5H40.7c-5.9 0-10.7-4.8-10.7-10.7v-46.5c0-5.9 4.8-10.7 10.7-10.7H1039c5.9 0 10.7 4.8 10.7 10.7v46.5c0 5.8-4.9 10.7-10.7 10.7z" style="fill:#f2f2f2"></path>
  <path d="M665.7 352.3v-29.6H685v-54.3h-19.3v-29.6c0-8.6-7.5-15.7-16.7-15.7H411.7c-9.2 0-16.7 7-16.7 15.7v113.5c0 8.6 7.5 15.7 16.7 15.7h237.2c9.3 0 16.8-7 16.8-15.7zm9.6-74.8v36.2h-9.7v-36.2h9.7zm-263.6 81.4c-3.9 0-7.1-3-7.1-6.6V238.8c0-3.7 3.2-6.6 7.1-6.6h237.2c3.9 0 7.1 3 7.1 6.6v113.5c0 3.7-3.2 6.6-7.1 6.6H411.7z" style="fill:#2a94f4"></path>
  <path d="M413.8 239.6H437v112.9h-23.2z" style="fill:#ffbe55"></path>
  <path d="M31 437h333.9v312.9H31z" style="fill:#e2e2e2"></path>
  <path d="M44 450.1h333.9V763H44z" style="fill:none;stroke:#e2e2e2;stroke-miterlimit:10"></path>
  <path d="M81.5 749.2h-51l283-311.8h51zM364.9 483.6v12.1L134.5 749.6h-11z" style="fill:#fff"></path>
  <path d="M703 437h333.9v312.9H703z" style="fill:#e2e2e2"></path>
  <path d="M716 450.1h333.9V763H716z" style="fill:none;stroke:#e2e2e2;stroke-miterlimit:10"></path>
  <path d="M753.5 749.2h-51l283-311.8h51zM1036.9 483.6v12.1L806.5 749.6h-11z" style="fill:#fff"></path>
  <path d="m546.6 800.4 7.1 13.5-6-.4-6.6-6.5z" style="fill:#f7c4a1"></path>
  <path d="M538.4 566.2c-11.5 76.4-10.6 161.7-1.6 216.4l16 1.1s-1.6-144.5 20.5-215.1c-35.9-2.5-34.9-2.4-34.9-2.4z" style="fill:#f4ba92"></path>
  <path d="M536.9 782.6c-9 13.4-10.1 15.3-10.1 15.3s4.3 24.4 7.1 26.6c7.8 3.6 23.2 11.7 23.2 11.7-1.5-7.1-11-14.8-11-14.8-4.5-7.3 1.2-17 3.3-17.8 2.1-.9 3.4-19.8 3.4-19.8l-10.4-8.8-5.5 7.6z" style="fill:#f4ba92"></path>
  <path d="M575.6 537.8c-2.3-23.2-18.4-36.4-32.8-32.4-14.3 4-10.3 73.4-10.3 73.4l42.9 3.1.2-44.1zM496 550l4 21 11 12 3-32z" style="fill:#2fa2ea"></path>
  <path d="M476.6 908 402 941h102v-37z" style="fill:#0b3c5e"></path>
  <path d="M608 629s-97 82-114 122c-4 49-23 157-23 157h34s37-132 31-144c39-22 119-59 131-82s10.9-67.5 10.9-67.5L608 629z" style="fill:#0c4b75"></path>
  <path d="m720 876-8 72 46-81-28-14z" style="fill:#0b3c5e"></path>
  <path d="M707 615c21 34-73 153-83 165 25 6 74 33 109 73-9 14-15 27-15 27l-153.6-82.9S607 630 629 621s78-6 78-6z" style="fill:#0e538c"></path>
  <path d="M494 519c16-19 195-79 226 126-38 0-112-16-112-16 4-17-37-76-103-72 0-13-11-38-11-38z" style="fill:#2a94f4"></path>
  <path d="M505 580c-6 11-41 98-22 138 8 7 13 10 13 10l12-24s-10-82 8-124c0-6-11 0-11 0z" style="fill:#ffbe55"></path>
  <path d="M500.5 554.3C503 568 505 580 505 580h11s4-11 1-20c-8-7-16.5-5.7-16.5-5.7z" style="fill:#ffbe55"></path>
  <path d="M460.9 528.7C476 525 494 524 494 524l11 33s-26-12-37-7c-8-5-7.1-21.3-7.1-21.3z" style="fill:#fcd4b4"></path>
  <path d="M467.7 533.2c-.7-9.2-4.1-19.9-13.4-27.6-.6 9.7 2.7 20.3 2.7 20.3l10.7 7.3z" style="fill:#0e538c"></path>
  <path d="M437.9 509.8c40.1 18.2 35.8 38.6 28.3 60.2-11.1 32-34.3 24.8-58.1 7-23-17.2-45.3-32.5-35.1-53 10-20.6 38.7-26.1 64.9-14.2z" style="fill:#ffe3ca"></path>
  <path d="M411 497c-3 11-23 95-80 47 26-8 45-75 76-66 13 4 4 19 4 19z" style="fill:#0e538c"></path>
  <path d="M402 515c14 5 39 15 52 4s-15-53-34-42-21 26-18 38z" style="fill:#0e538c"></path>
  <ellipse cx="456.2" cy="518.3" rx="10.3" ry="13" style="fill:#ffe3ca" transform="rotate(-22.236 456.177 518.302)"></ellipse>
  <path d="m487 519 18 47 24 14-18-68z" style="fill:#5cb9ff"></path>
  <path d="m573 818 8 13h-6l-7-6z" style="fill:#f7c4a1"></path>
  <path d="M548 585c-6 77 1 162 14 216h16s-12-144 5-216h-35z" style="fill:#fcd4b4"></path>
  <path d="M562 801c-8 14-9 16-9 16s6 24 9 26c8 3 24 10 24 10-2-7-12-14-12-14-5-7 0-17 2-18s2-20 2-20l-11-8-5 8z" style="fill:#fcd4b4"></path>
  <path d="M583 554c-4-23-21-35-35-30s-5 74-5 74h43l-3-44z" style="fill:#5cb9ff"></path>
  <path d="M962.7 851.2c-8.2-38.5-33.7-72.9-68-92.1 18.4 34.7 40.3 67.4 65.5 97.6l2.5-5.5z" style="fill:#1a87d8"></path>
  <path d="M971.9 865.7c-32.7-45.7-49.1-102.9-45.6-159 21.2 51.8 37.2 105.7 47.7 160.6l-2.1-1.6z" style="fill:#2a94f4"></path>
  <path d="M962.5 867.3c-1-28.1-2-56.5 2.4-84.3 4.4-27.8 14.6-55.3 33.5-76.2 2.9 57.6-11.1 115.9-39.6 166l3.7-5.5z" style="fill:#1a87d8"></path>
  <path d="M963.9 869.8c-18.4-53.2-15.4-113.4 8.2-164.5 14.8 53.4 1.7 110-11.4 163.8l3.2.7z" style="fill:#b0e1ff"></path>
  <path d="M966.3 850.1c5.1-46.7 36.2-89.6 79-108.9-17.3 46.5-47 88.4-85.1 120.3l6.1-11.4z" style="fill:#2a94f4"></path>
  <path d="m1010.4 841.9-5.3 90.6c0 4.4-3.6 7.9-7.9 7.9h-62.8c-4.4 0-7.9-3.6-7.9-7.9l-1.2-20.5-4.1-70.1c0-4.4 3.6-7.9 7.9-7.9h73.4c2.9 0 5.4 1.5 6.8 3.8.6 1.2 1.1 2.6 1.1 4.1z" style="fill:#cce9ff"></path>
  <path d="m1010.4 841.9-5.3 90.6c0 4.4-3.6 7.9-7.9 7.9h-62.8c-4.4 0-7.9-3.6-7.9-7.9l-1.2-20.5c29.3-8.4 59.5-44.6 84-74.2.6 1.2 1.1 2.6 1.1 4.1z" style="fill:#cce9ff"></path>
  <path d="M79.2 882c-5.4-25.2-22-47.7-44.5-60.3 12 22.7 26.4 44.1 42.9 63.9l1.6-3.6z" style="fill:#1a87d8"></path>
  <path d="M85.2 891.5c-21.4-29.9-32.1-67.3-29.9-104.1 13.9 33.9 24.4 69.2 31.2 105.2l-1.3-1.1z" style="fill:#2a94f4"></path>
  <path d="M79.1 892.5c-.7-18.4-1.3-37 1.6-55.2s9.6-36.2 22-49.9c1.9 37.7-7.2 75.9-26 108.7l2.4-3.6z" style="fill:#1a87d8"></path>
  <path d="M80 894.2c-12.1-34.8-10.1-74.3 5.4-107.7 9.7 34.9 1.1 72-7.5 107.2l2.1.5z" style="fill:#b0e1ff"></path>
  <path d="M81.6 881.3c3.3-30.5 23.7-58.7 51.7-71.3-11.4 30.5-30.8 57.9-55.7 78.8l4-7.5z" style="fill:#2a94f4"></path>
  <path d="m110.4 875.9-3.5 59.3c0 2.9-2.3 5.2-5.2 5.2H60.6c-2.9 0-5.2-2.3-5.2-5.2l-.8-13.4-2.6-45.9c0-2.9 2.3-5.2 5.2-5.2h48.1c1.9 0 3.5 1 4.4 2.5.5.8.7 1.7.7 2.7z" style="fill:#cce9ff"></path>
  <path d="m110.4 875.9-3.5 59.3c0 2.9-2.3 5.2-5.2 5.2H60.6c-2.9 0-5.2-2.3-5.2-5.2l-.8-13.4c19.2-5.5 39-29.2 55-48.6.6.8.8 1.7.8 2.7z" style="fill:#cce9ff"></path>
</svg>
